<mxfile host="app.diagrams.net" agent="Mozilla/5.0 (Windows NT 10.0; Win64; x64) AppleWebKit/537.36 (KHTML, like Gecko) Chrome/140.0.0.0 Safari/537.36 Edg/140.0.0.0" version="28.2.3">
  <diagram name="ページ1" id="ImMHhRR5a37vKUFwnUod">
    <mxGraphModel dx="1477" dy="814" grid="1" gridSize="10" guides="1" tooltips="1" connect="1" arrows="1" fold="1" page="1" pageScale="1" pageWidth="827" pageHeight="1169" math="0" shadow="0">
      <root>
        <mxCell id="0" />
        <mxCell id="1" parent="0" />
        <mxCell id="KZE4EWLxJEqcz8cQHFLK-1" value="ユーザー(訪問者)" style="shape=umlActor;verticalLabelPosition=bottom;verticalAlign=top;html=1;" parent="1" vertex="1">
          <mxGeometry x="100" y="150" width="50" height="80" as="geometry" />
        </mxCell>
        <mxCell id="KZE4EWLxJEqcz8cQHFLK-2" value="ログイン画面" style="shape=umlBoundary;whiteSpace=wrap;html=1;fillColor=#FFCCCC;" parent="1" vertex="1">
          <mxGeometry x="320" y="90" width="100" height="80" as="geometry" />
        </mxCell>
        <mxCell id="KZE4EWLxJEqcz8cQHFLK-3" value="訪問者システム" style="ellipse;shape=umlEntity;whiteSpace=wrap;html=1;fillColor=#99FFFF;" parent="1" vertex="1">
          <mxGeometry x="770" y="330" width="90" height="90" as="geometry" />
        </mxCell>
        <mxCell id="KZE4EWLxJEqcz8cQHFLK-4" value="ログイン処理" style="ellipse;shape=umlControl;whiteSpace=wrap;html=1;fillColor=#FFFFCC;" parent="1" vertex="1">
          <mxGeometry x="550" y="210" width="80" height="80" as="geometry" />
        </mxCell>
        <mxCell id="KZE4EWLxJEqcz8cQHFLK-6" value="" style="endArrow=open;endFill=1;endSize=12;html=1;rounded=0;entryX=0.14;entryY=0.57;entryDx=0;entryDy=0;entryPerimeter=0;" parent="1" source="KZE4EWLxJEqcz8cQHFLK-1" target="KZE4EWLxJEqcz8cQHFLK-2" edge="1">
          <mxGeometry width="160" relative="1" as="geometry">
            <mxPoint x="330" y="300" as="sourcePoint" />
            <mxPoint x="490" y="300" as="targetPoint" />
          </mxGeometry>
        </mxCell>
        <mxCell id="KZE4EWLxJEqcz8cQHFLK-7" value="入門！" style="text;html=1;align=center;verticalAlign=middle;resizable=0;points=[];autosize=1;strokeColor=none;fillColor=none;" parent="1" vertex="1">
          <mxGeometry x="210" y="135" width="60" height="30" as="geometry" />
        </mxCell>
        <mxCell id="KZE4EWLxJEqcz8cQHFLK-10" value="ユーザーID・パスワード入力" style="text;html=1;align=center;verticalAlign=middle;resizable=0;points=[];autosize=1;strokeColor=none;fillColor=none;" parent="1" vertex="1">
          <mxGeometry x="420" y="105" width="180" height="30" as="geometry" />
        </mxCell>
        <mxCell id="KZE4EWLxJEqcz8cQHFLK-12" value="" style="endArrow=block;startArrow=block;endFill=1;startFill=1;html=1;rounded=0;entryX=0.295;entryY=0.105;entryDx=0;entryDy=0;entryPerimeter=0;exitX=1.01;exitY=0.73;exitDx=0;exitDy=0;exitPerimeter=0;" parent="1" source="KZE4EWLxJEqcz8cQHFLK-4" target="KZE4EWLxJEqcz8cQHFLK-3" edge="1">
          <mxGeometry width="160" relative="1" as="geometry">
            <mxPoint x="330" y="300" as="sourcePoint" />
            <mxPoint x="490" y="300" as="targetPoint" />
          </mxGeometry>
        </mxCell>
        <mxCell id="KZE4EWLxJEqcz8cQHFLK-13" value="ユーザーID・パスワードのデータ取得" style="text;html=1;align=center;verticalAlign=middle;resizable=0;points=[];autosize=1;strokeColor=none;fillColor=none;" parent="1" vertex="1">
          <mxGeometry x="670" y="260" width="230" height="30" as="geometry" />
        </mxCell>
        <mxCell id="KZE4EWLxJEqcz8cQHFLK-14" value="メニュー画面" style="shape=umlBoundary;whiteSpace=wrap;html=1;fillColor=#FFCCCC;" parent="1" vertex="1">
          <mxGeometry x="290" y="330" width="100" height="80" as="geometry" />
        </mxCell>
        <mxCell id="KZE4EWLxJEqcz8cQHFLK-15" value="" style="endArrow=open;endFill=1;endSize=12;html=1;rounded=0;exitX=0.01;exitY=0.75;exitDx=0;exitDy=0;exitPerimeter=0;entryX=0.9;entryY=0.125;entryDx=0;entryDy=0;entryPerimeter=0;" parent="1" source="KZE4EWLxJEqcz8cQHFLK-4" target="KZE4EWLxJEqcz8cQHFLK-14" edge="1">
          <mxGeometry width="160" relative="1" as="geometry">
            <mxPoint x="470" y="360" as="sourcePoint" />
            <mxPoint x="625" y="414" as="targetPoint" />
          </mxGeometry>
        </mxCell>
        <mxCell id="KZE4EWLxJEqcz8cQHFLK-16" value="" style="endArrow=open;endFill=1;endSize=12;html=1;rounded=0;exitX=0.336;exitY=0.04;exitDx=0;exitDy=0;exitPerimeter=0;" parent="1" source="KZE4EWLxJEqcz8cQHFLK-14" target="KZE4EWLxJEqcz8cQHFLK-1" edge="1">
          <mxGeometry width="160" relative="1" as="geometry">
            <mxPoint x="441" y="280" as="sourcePoint" />
            <mxPoint x="270" y="350" as="targetPoint" />
          </mxGeometry>
        </mxCell>
        <mxCell id="KZE4EWLxJEqcz8cQHFLK-18" value="データが一致の場合メニュー画面" style="text;html=1;align=center;verticalAlign=middle;resizable=0;points=[];autosize=1;strokeColor=none;fillColor=none;" parent="1" vertex="1">
          <mxGeometry x="340" y="260" width="200" height="30" as="geometry" />
        </mxCell>
        <mxCell id="KZE4EWLxJEqcz8cQHFLK-19" value="" style="endArrow=block;startArrow=block;endFill=1;startFill=1;html=1;rounded=0;entryX=0.12;entryY=0.26;entryDx=0;entryDy=0;entryPerimeter=0;" parent="1" source="KZE4EWLxJEqcz8cQHFLK-2" target="KZE4EWLxJEqcz8cQHFLK-4" edge="1">
          <mxGeometry width="160" relative="1" as="geometry">
            <mxPoint x="460" y="210" as="sourcePoint" />
            <mxPoint x="650" y="180" as="targetPoint" />
          </mxGeometry>
        </mxCell>
        <mxCell id="KZE4EWLxJEqcz8cQHFLK-20" value="データが不一致の場合ログイン画面" style="text;html=1;align=center;verticalAlign=middle;resizable=0;points=[];autosize=1;strokeColor=none;fillColor=none;" parent="1" vertex="1">
          <mxGeometry x="490" y="175" width="220" height="30" as="geometry" />
        </mxCell>
        <mxCell id="TsDxGR-JeY7t0c9MAmpP-1" value="ユーザー(訪問者)" style="shape=umlActor;verticalLabelPosition=bottom;verticalAlign=top;html=1;" vertex="1" parent="1">
          <mxGeometry x="110" y="740" width="50" height="80" as="geometry" />
        </mxCell>
        <mxCell id="TsDxGR-JeY7t0c9MAmpP-2" value="ログイン画面" style="shape=umlBoundary;whiteSpace=wrap;html=1;fillColor=#f8cecc;strokeColor=#b85450;" vertex="1" parent="1">
          <mxGeometry x="330" y="700" width="100" height="80" as="geometry" />
        </mxCell>
        <mxCell id="TsDxGR-JeY7t0c9MAmpP-3" value="訪問者システム" style="ellipse;shape=umlEntity;whiteSpace=wrap;html=1;fillColor=#d5e8d4;strokeColor=#82b366;" vertex="1" parent="1">
          <mxGeometry x="1196" y="735" width="90" height="90" as="geometry" />
        </mxCell>
        <mxCell id="TsDxGR-JeY7t0c9MAmpP-4" value="ログイン処理" style="ellipse;shape=umlControl;whiteSpace=wrap;html=1;fillColor=#fff2cc;strokeColor=#d6b656;" vertex="1" parent="1">
          <mxGeometry x="947" y="770" width="80" height="80" as="geometry" />
        </mxCell>
        <mxCell id="TsDxGR-JeY7t0c9MAmpP-7" value="ユーザーID・パスワード入力" style="text;html=1;align=center;verticalAlign=middle;resizable=0;points=[];autosize=1;strokeColor=none;fillColor=none;" vertex="1" parent="1">
          <mxGeometry x="160" y="740" width="180" height="30" as="geometry" />
        </mxCell>
        <mxCell id="TsDxGR-JeY7t0c9MAmpP-9" value="ユーザーID・パスワードのデータ取得" style="text;html=1;align=center;verticalAlign=middle;resizable=0;points=[];autosize=1;strokeColor=none;fillColor=none;" vertex="1" parent="1">
          <mxGeometry x="1045" y="335" width="230" height="30" as="geometry" />
        </mxCell>
        <mxCell id="TsDxGR-JeY7t0c9MAmpP-10" value="メニュー画面" style="shape=umlBoundary;whiteSpace=wrap;html=1;fillColor=#f8cecc;strokeColor=#b85450;" vertex="1" parent="1">
          <mxGeometry x="630" y="920" width="100" height="80" as="geometry" />
        </mxCell>
        <mxCell id="TsDxGR-JeY7t0c9MAmpP-13" value="データが一致の場合メニュー画面" style="text;html=1;align=center;verticalAlign=middle;resizable=0;points=[];autosize=1;strokeColor=none;fillColor=none;" vertex="1" parent="1">
          <mxGeometry x="1075" y="290" width="200" height="30" as="geometry" />
        </mxCell>
        <mxCell id="TsDxGR-JeY7t0c9MAmpP-15" value="データが不一致の場合ログイン画面" style="text;html=1;align=center;verticalAlign=middle;resizable=0;points=[];autosize=1;strokeColor=none;fillColor=none;" vertex="1" parent="1">
          <mxGeometry x="1095" y="365" width="220" height="30" as="geometry" />
        </mxCell>
        <mxCell id="TsDxGR-JeY7t0c9MAmpP-18" value="入力文字確認&lt;span style=&quot;background-color: transparent; color: light-dark(rgb(0, 0, 0), rgb(255, 255, 255));&quot;&gt;処理&lt;/span&gt;" style="ellipse;shape=umlControl;whiteSpace=wrap;html=1;fillColor=#fff2cc;strokeColor=#d6b656;" vertex="1" parent="1">
          <mxGeometry x="710" y="670" width="80" height="80" as="geometry" />
        </mxCell>
        <mxCell id="TsDxGR-JeY7t0c9MAmpP-20" value="値を送信" style="text;html=1;align=center;verticalAlign=middle;resizable=0;points=[];autosize=1;strokeColor=none;fillColor=none;" vertex="1" parent="1">
          <mxGeometry x="555" y="680" width="70" height="30" as="geometry" />
        </mxCell>
        <mxCell id="TsDxGR-JeY7t0c9MAmpP-22" value="" style="endArrow=open;endFill=1;endSize=12;html=1;rounded=0;exitX=0.96;exitY=0.815;exitDx=0;exitDy=0;exitPerimeter=0;" edge="1" parent="1" source="TsDxGR-JeY7t0c9MAmpP-18" target="TsDxGR-JeY7t0c9MAmpP-4">
          <mxGeometry width="160" relative="1" as="geometry">
            <mxPoint x="450" y="800" as="sourcePoint" />
            <mxPoint x="610" y="800" as="targetPoint" />
          </mxGeometry>
        </mxCell>
        <mxCell id="TsDxGR-JeY7t0c9MAmpP-23" value="入力エラーなし" style="text;html=1;align=center;verticalAlign=middle;resizable=0;points=[];autosize=1;strokeColor=none;fillColor=none;" vertex="1" parent="1">
          <mxGeometry x="815" y="720" width="110" height="30" as="geometry" />
        </mxCell>
        <mxCell id="TsDxGR-JeY7t0c9MAmpP-24" value="" style="endArrow=open;endFill=1;endSize=12;html=1;rounded=0;exitX=0.976;exitY=0.425;exitDx=0;exitDy=0;exitPerimeter=0;entryX=0.013;entryY=0.535;entryDx=0;entryDy=0;entryPerimeter=0;" edge="1" parent="1" source="TsDxGR-JeY7t0c9MAmpP-2" target="TsDxGR-JeY7t0c9MAmpP-18">
          <mxGeometry width="160" relative="1" as="geometry">
            <mxPoint x="684" y="740" as="sourcePoint" />
            <mxPoint x="480" y="947" as="targetPoint" />
          </mxGeometry>
        </mxCell>
        <mxCell id="TsDxGR-JeY7t0c9MAmpP-25" value="入力エラー表示" style="ellipse;shape=umlControl;whiteSpace=wrap;html=1;fillColor=#fff2cc;strokeColor=#d6b656;" vertex="1" parent="1">
          <mxGeometry x="530" y="585" width="80" height="80" as="geometry" />
        </mxCell>
        <mxCell id="TsDxGR-JeY7t0c9MAmpP-26" value="" style="endArrow=open;endFill=1;endSize=12;html=1;rounded=0;exitX=0.14;exitY=0.25;exitDx=0;exitDy=0;exitPerimeter=0;entryX=0.99;entryY=0.81;entryDx=0;entryDy=0;entryPerimeter=0;" edge="1" parent="1" source="TsDxGR-JeY7t0c9MAmpP-18" target="TsDxGR-JeY7t0c9MAmpP-25">
          <mxGeometry width="160" relative="1" as="geometry">
            <mxPoint x="901" y="950" as="sourcePoint" />
            <mxPoint x="780" y="850" as="targetPoint" />
          </mxGeometry>
        </mxCell>
        <mxCell id="TsDxGR-JeY7t0c9MAmpP-27" value="" style="endArrow=open;endFill=1;endSize=12;html=1;rounded=0;exitX=-0.016;exitY=0.412;exitDx=0;exitDy=0;exitPerimeter=0;entryX=0.927;entryY=0.723;entryDx=0;entryDy=0;entryPerimeter=0;" edge="1" parent="1" source="TsDxGR-JeY7t0c9MAmpP-25" target="TsDxGR-JeY7t0c9MAmpP-48">
          <mxGeometry width="160" relative="1" as="geometry">
            <mxPoint x="531" y="670" as="sourcePoint" />
            <mxPoint x="410" y="570" as="targetPoint" />
          </mxGeometry>
        </mxCell>
        <mxCell id="TsDxGR-JeY7t0c9MAmpP-28" value="入力エラー発見" style="text;html=1;align=center;verticalAlign=middle;resizable=0;points=[];autosize=1;strokeColor=none;fillColor=none;" vertex="1" parent="1">
          <mxGeometry x="625" y="630" width="110" height="30" as="geometry" />
        </mxCell>
        <mxCell id="TsDxGR-JeY7t0c9MAmpP-30" value="" style="endArrow=block;startArrow=block;endFill=1;startFill=1;html=1;rounded=0;entryX=0.04;entryY=0.691;entryDx=0;entryDy=0;entryPerimeter=0;exitX=0.988;exitY=0.52;exitDx=0;exitDy=0;exitPerimeter=0;" edge="1" parent="1" source="TsDxGR-JeY7t0c9MAmpP-4" target="TsDxGR-JeY7t0c9MAmpP-3">
          <mxGeometry width="160" relative="1" as="geometry">
            <mxPoint x="690" y="800" as="sourcePoint" />
            <mxPoint x="850" y="800" as="targetPoint" />
          </mxGeometry>
        </mxCell>
        <mxCell id="TsDxGR-JeY7t0c9MAmpP-31" value="データを取得、登録" style="text;html=1;align=center;verticalAlign=middle;resizable=0;points=[];autosize=1;strokeColor=none;fillColor=none;" vertex="1" parent="1">
          <mxGeometry x="1045" y="770" width="130" height="30" as="geometry" />
        </mxCell>
        <mxCell id="TsDxGR-JeY7t0c9MAmpP-33" value="ログイン失敗(エラー)表示" style="ellipse;shape=umlControl;whiteSpace=wrap;html=1;fillColor=#fff2cc;strokeColor=#d6b656;" vertex="1" parent="1">
          <mxGeometry x="760" y="500" width="80" height="80" as="geometry" />
        </mxCell>
        <mxCell id="TsDxGR-JeY7t0c9MAmpP-36" value="" style="endArrow=open;endFill=1;endSize=12;html=1;rounded=0;exitX=0.029;exitY=0.729;exitDx=0;exitDy=0;exitPerimeter=0;entryX=1.02;entryY=0.425;entryDx=0;entryDy=0;entryPerimeter=0;" edge="1" parent="1" source="TsDxGR-JeY7t0c9MAmpP-4" target="TsDxGR-JeY7t0c9MAmpP-10">
          <mxGeometry width="160" relative="1" as="geometry">
            <mxPoint x="910" y="850" as="sourcePoint" />
            <mxPoint x="780.8" y="918.8" as="targetPoint" />
          </mxGeometry>
        </mxCell>
        <mxCell id="TsDxGR-JeY7t0c9MAmpP-38" value="成功" style="text;html=1;align=center;verticalAlign=middle;resizable=0;points=[];autosize=1;strokeColor=none;fillColor=none;" vertex="1" parent="1">
          <mxGeometry x="810" y="850" width="50" height="30" as="geometry" />
        </mxCell>
        <mxCell id="TsDxGR-JeY7t0c9MAmpP-39" value="失敗" style="text;html=1;align=center;verticalAlign=middle;resizable=0;points=[];autosize=1;strokeColor=none;fillColor=none;" vertex="1" parent="1">
          <mxGeometry x="920" y="670" width="50" height="30" as="geometry" />
        </mxCell>
        <mxCell id="TsDxGR-JeY7t0c9MAmpP-45" value="webブラウザ" style="shape=umlBoundary;whiteSpace=wrap;html=1;fillColor=#f8cecc;strokeColor=#b85450;" vertex="1" parent="1">
          <mxGeometry x="190" y="500" width="100" height="80" as="geometry" />
        </mxCell>
        <mxCell id="TsDxGR-JeY7t0c9MAmpP-46" value="サイトをクリック" style="text;html=1;align=center;verticalAlign=middle;resizable=0;points=[];autosize=1;strokeColor=none;fillColor=none;" vertex="1" parent="1">
          <mxGeometry x="80" y="620" width="120" height="30" as="geometry" />
        </mxCell>
        <mxCell id="TsDxGR-JeY7t0c9MAmpP-47" value="" style="endArrow=open;endFill=1;endSize=12;html=1;rounded=0;entryX=0.384;entryY=0.995;entryDx=0;entryDy=0;entryPerimeter=0;exitX=0.672;exitY=0.005;exitDx=0;exitDy=0;exitPerimeter=0;" edge="1" parent="1" source="TsDxGR-JeY7t0c9MAmpP-1" target="TsDxGR-JeY7t0c9MAmpP-45">
          <mxGeometry width="160" relative="1" as="geometry">
            <mxPoint x="190" y="693" as="sourcePoint" />
            <mxPoint x="387" y="680" as="targetPoint" />
          </mxGeometry>
        </mxCell>
        <mxCell id="TsDxGR-JeY7t0c9MAmpP-48" value="ログイン画面表示" style="ellipse;shape=umlControl;whiteSpace=wrap;html=1;fillColor=#fff2cc;strokeColor=#d6b656;" vertex="1" parent="1">
          <mxGeometry x="374" y="525" width="80" height="80" as="geometry" />
        </mxCell>
        <mxCell id="TsDxGR-JeY7t0c9MAmpP-49" value="" style="endArrow=open;endFill=1;endSize=12;html=1;rounded=0;exitX=0.434;exitY=0.962;exitDx=0;exitDy=0;exitPerimeter=0;entryX=0.753;entryY=0.046;entryDx=0;entryDy=0;entryPerimeter=0;" edge="1" parent="1" source="TsDxGR-JeY7t0c9MAmpP-48" target="TsDxGR-JeY7t0c9MAmpP-2">
          <mxGeometry width="160" relative="1" as="geometry">
            <mxPoint x="639" y="553" as="sourcePoint" />
            <mxPoint x="550" y="480" as="targetPoint" />
          </mxGeometry>
        </mxCell>
        <mxCell id="TsDxGR-JeY7t0c9MAmpP-50" value="" style="endArrow=open;endFill=1;endSize=12;html=1;rounded=0;exitX=1.01;exitY=0.689;exitDx=0;exitDy=0;exitPerimeter=0;entryX=0.02;entryY=0.562;entryDx=0;entryDy=0;entryPerimeter=0;" edge="1" parent="1" source="TsDxGR-JeY7t0c9MAmpP-45" target="TsDxGR-JeY7t0c9MAmpP-48">
          <mxGeometry width="160" relative="1" as="geometry">
            <mxPoint x="294" y="650" as="sourcePoint" />
            <mxPoint x="290" y="752" as="targetPoint" />
          </mxGeometry>
        </mxCell>
        <mxCell id="TsDxGR-JeY7t0c9MAmpP-51" value="" style="endArrow=open;endFill=1;endSize=12;html=1;rounded=0;exitX=0;exitY=0.375;exitDx=0;exitDy=0;exitPerimeter=0;entryX=0.934;entryY=0.377;entryDx=0;entryDy=0;entryPerimeter=0;" edge="1" parent="1" source="TsDxGR-JeY7t0c9MAmpP-33" target="TsDxGR-JeY7t0c9MAmpP-48">
          <mxGeometry width="160" relative="1" as="geometry">
            <mxPoint x="661" y="465" as="sourcePoint" />
            <mxPoint x="580" y="430" as="targetPoint" />
            <Array as="points" />
          </mxGeometry>
        </mxCell>
        <mxCell id="TsDxGR-JeY7t0c9MAmpP-52" value="" style="endArrow=open;endFill=1;endSize=12;html=1;rounded=0;exitX=0.343;exitY=0.114;exitDx=0;exitDy=0;exitPerimeter=0;entryX=0.837;entryY=0.889;entryDx=0;entryDy=0;entryPerimeter=0;" edge="1" parent="1" source="TsDxGR-JeY7t0c9MAmpP-4" target="TsDxGR-JeY7t0c9MAmpP-33">
          <mxGeometry width="160" relative="1" as="geometry">
            <mxPoint x="870" y="620" as="sourcePoint" />
            <mxPoint x="1033" y="681" as="targetPoint" />
          </mxGeometry>
        </mxCell>
        <mxCell id="TsDxGR-JeY7t0c9MAmpP-56" value="" style="endArrow=none;html=1;rounded=0;entryX=0.284;entryY=0.918;entryDx=0;entryDy=0;entryPerimeter=0;" edge="1" parent="1" source="TsDxGR-JeY7t0c9MAmpP-1" target="TsDxGR-JeY7t0c9MAmpP-2">
          <mxGeometry width="50" height="50" relative="1" as="geometry">
            <mxPoint x="650" y="890" as="sourcePoint" />
            <mxPoint x="700" y="840" as="targetPoint" />
          </mxGeometry>
        </mxCell>
      </root>
    </mxGraphModel>
  </diagram>
</mxfile>
